<?xml version="1.0" encoding="UTF-8"?>
<svg width="48px" height="48px" viewBox="0 0 48 48" version="1.1" xmlns="http://www.w3.org/2000/svg" xmlns:xlink="http://www.w3.org/1999/xlink">
    <title>2C614A82-26E9-48C6-A548-E892C6502B9E</title>
    <defs>
        <linearGradient x1="17.875889%" y1="-6.51031023%" x2="82.1240689%" y2="106.51026%" id="linearGradient-1">
            <stop stop-color="#8324B3" offset="0%"></stop>
            <stop stop-color="#7A1BAC" offset="50%"></stop>
            <stop stop-color="#621197" offset="100%"></stop>
        </linearGradient>
    </defs>
    <g id="UI-kit" stroke="none" stroke-width="1" fill="none" fill-rule="evenodd">
        <g id="Connectors" transform="translate(-1020.000000, -2320.000000)" fill-rule="nonzero">
            <g id="Connector/Ably-Copy-148" transform="translate(1020.000000, 2320.000000)">
                <g id="Microsoft_Office_OneNote_(2019–present)" transform="translate(0.000000, 1.000000)">
                    <path d="M36.8372138,44.9999824 L13.2066964,44.9999824 C12.0778845,44.9999824 11.1627862,44.0777529 11.1627862,42.940105 L11.1627862,42.940105 L11.1627862,2.0598774 C11.1627862,0.922229524 12.0778845,0 13.2066964,0 L13.2066964,0 L45.9560899,0 C47.0849192,0 48,0.922229524 48,2.0598774 C48,2.0598774 48,2.0598774 48,2.0598774 L48,11.2499912 L36.8372138,44.9999824 Z" id="Path" fill="#CA64EA"></path>
                    <polygon id="Path" fill="#AE4BD5" points="48 22.5 42.4185981 25.8749991 36.8371963 22.5 36.8371963 11.2499912 47.9999825 11.2499912 47.9999825 22.5"></polygon>
                    <polygon id="Path" fill="#9332BF" points="48 33.7499912 42.4185981 37.1249903 36.8372138 33.7499912 36.8372138 22.5 48 22.5"></polygon>
                    <path d="M36.8372138,33.7499912 L48,33.7499912 L48,42.8906167 C48,44.0555995 47.06292,45 45.9069677,45 L36.8372138,45 L36.8372138,33.7499912 Z" id="Path" fill="#7719AA"></path>
                    <path d="M24.7445699,9.00000352 L11.1628037,9.00000352 L11.1628037,37.1249903 L24.7445699,37.1249903 C25.8731019,37.1212893 26.7870286,36.2002053 26.7907009,35.0628747 L26.7907009,11.0621192 C26.7870286,9.92478853 25.8730844,9.00370457 24.7445699,9.00000352 Z" id="Path" fill="#000000" opacity="0.2"></path>
                    <path d="M23.628279,10.1249974 L11.1627862,10.1249974 L11.1627862,38.2499841 L23.628279,38.2499841 C24.7568111,38.2462831 25.6707377,37.3251991 25.6744101,36.1878685 L25.6744101,12.1871306 C25.6707552,11.0497824 24.7568111,10.1286984 23.628279,10.1249974 Z" id="Path" fill="#000000" opacity="0.2"></path>
                    <path d="M23.628279,10.1249974 L11.1627862,10.1249974 L11.1627862,35.9999965 L23.628279,35.9999965 C24.7568111,35.9962954 25.6707377,35.0752115 25.6744101,33.9378808 L25.6744101,12.1871306 C25.6707552,11.0497824 24.7568111,10.1286984 23.628279,10.1249974 Z" id="Path" fill="#000000" opacity="0.5"></path>
                    <path d="M22.5120056,10.1249974 L11.1627862,10.1249974 L11.1627862,35.9999965 L22.5119882,35.9999965 C23.6405202,35.9962954 24.5544468,35.0752115 24.5581367,33.9378808 L24.5581367,12.1871306 C24.5544643,11.0497824 23.6405202,10.1286984 22.5120056,10.1249974 Z" id="Path" fill="#000000" opacity="0.5"></path>
                    <path d="M2.04614853,10.1249974 L22.5120056,10.1249974 C23.6420591,10.1249974 24.5581542,11.0482491 24.5581542,12.1871306 L24.5581542,32.8128694 C24.5581542,33.9517509 23.6420591,34.8750026 22.5120056,34.8750026 L2.04614853,34.8750026 C0.916095078,34.8750026 0,33.9517509 0,32.8128694 L0,12.1871306 C0,11.0482491 0.916095078,10.1249974 2.04614853,10.1249974 Z" id="Path" fill="url(#linearGradient-1)"></path>
                    <path d="M6.72670432,15.7972518 L9.50066106,15.7972518 L14.9514495,24.6847436 C15.1992635,25.0829935 15.385312,25.4036096 15.5095949,25.6466095 L15.5453217,25.6466095 C15.4778903,25.0416299 15.4510471,24.4327377 15.4649496,23.82411 L15.4649496,15.7972518 L17.8314673,15.7972518 L17.8314673,29.2027482 L15.2349728,29.2027482 L9.57989648,20.0688727 C9.38835696,19.7675196 9.21969096,19.4519793 9.07533245,19.1250009 L9.03068711,19.1250009 C9.08769605,19.7901313 9.11116414,20.457729 9.10100396,21.1252562 L9.10100396,29.2027482 L6.72670432,29.2027482 L6.72670432,15.7972518 Z" id="Path" fill="#FFFFFF"></path>
                </g>
            </g>
        </g>
    </g>
</svg>